<mxfile host="app.diagrams.net" modified="2023-01-11T10:29:23.765Z" agent="5.0 (Windows NT 10.0; Win64; x64) AppleWebKit/537.36 (KHTML, like Gecko) Chrome/108.0.0.0 Safari/537.36" etag="EWju5BXRVu9cGa_NeOAY" version="20.8.3" type="github">
  <diagram id="C5RBs43oDa-KdzZeNtuy" name="Page-1">
    <mxGraphModel dx="954" dy="644" grid="1" gridSize="10" guides="1" tooltips="1" connect="1" arrows="1" fold="1" page="1" pageScale="1" pageWidth="827" pageHeight="1169" math="0" shadow="0">
      <root>
        <mxCell id="WIyWlLk6GJQsqaUBKTNV-0" />
        <mxCell id="WIyWlLk6GJQsqaUBKTNV-1" parent="WIyWlLk6GJQsqaUBKTNV-0" />
        <mxCell id="1xUykO0D0YHAC69Du_Xp-15" value="" style="edgeStyle=orthogonalEdgeStyle;rounded=0;orthogonalLoop=1;jettySize=auto;html=1;fontSize=12;labelBackgroundColor=none;strokeColor=#E07A5F;fontColor=default;" edge="1" parent="WIyWlLk6GJQsqaUBKTNV-1" source="WIyWlLk6GJQsqaUBKTNV-3" target="WIyWlLk6GJQsqaUBKTNV-6">
          <mxGeometry relative="1" as="geometry" />
        </mxCell>
        <mxCell id="WIyWlLk6GJQsqaUBKTNV-3" value="&lt;font style=&quot;font-size: 16px;&quot;&gt;发射任务&lt;/font&gt;" style="rounded=1;whiteSpace=wrap;html=1;fontSize=12;glass=0;strokeWidth=1;shadow=0;aspect=fixed;labelBackgroundColor=none;fillColor=#F2CC8F;strokeColor=#E07A5F;fontColor=#393C56;" parent="WIyWlLk6GJQsqaUBKTNV-1" vertex="1">
          <mxGeometry x="320" y="80" width="150" height="50" as="geometry" />
        </mxCell>
        <mxCell id="1xUykO0D0YHAC69Du_Xp-14" value="" style="edgeStyle=orthogonalEdgeStyle;rounded=0;orthogonalLoop=1;jettySize=auto;html=1;fontSize=12;labelBackgroundColor=none;strokeColor=#E07A5F;fontColor=default;" edge="1" parent="WIyWlLk6GJQsqaUBKTNV-1" source="WIyWlLk6GJQsqaUBKTNV-6" target="1xUykO0D0YHAC69Du_Xp-2">
          <mxGeometry relative="1" as="geometry" />
        </mxCell>
        <mxCell id="1xUykO0D0YHAC69Du_Xp-16" style="edgeStyle=orthogonalEdgeStyle;rounded=0;orthogonalLoop=1;jettySize=auto;html=1;entryX=1;entryY=0.5;entryDx=0;entryDy=0;fontSize=12;labelBackgroundColor=none;strokeColor=#E07A5F;fontColor=default;" edge="1" parent="WIyWlLk6GJQsqaUBKTNV-1" source="WIyWlLk6GJQsqaUBKTNV-6" target="1xUykO0D0YHAC69Du_Xp-4">
          <mxGeometry relative="1" as="geometry" />
        </mxCell>
        <mxCell id="WIyWlLk6GJQsqaUBKTNV-6" value="&lt;font style=&quot;font-size: 16px;&quot;&gt;分拣任务&lt;br&gt;&lt;/font&gt;（舵机控制）" style="rhombus;whiteSpace=wrap;html=1;shadow=0;fontFamily=Helvetica;fontSize=12;align=center;strokeWidth=1;spacing=6;spacingTop=-4;aspect=fixed;labelBackgroundColor=none;fillColor=#F2CC8F;strokeColor=#E07A5F;fontColor=#393C56;" parent="WIyWlLk6GJQsqaUBKTNV-1" vertex="1">
          <mxGeometry x="320" y="198" width="150" height="120" as="geometry" />
        </mxCell>
        <mxCell id="1xUykO0D0YHAC69Du_Xp-2" value="&lt;font style=&quot;font-size: 16px;&quot;&gt;轨道运行任务&lt;br&gt;&lt;/font&gt;（电磁铁、电机控制）" style="rounded=0;whiteSpace=wrap;html=1;aspect=fixed;labelBackgroundColor=none;fillColor=#fff2cc;strokeColor=#d6b656;" vertex="1" parent="WIyWlLk6GJQsqaUBKTNV-1">
          <mxGeometry x="580" y="233" width="150" height="50" as="geometry" />
        </mxCell>
        <mxCell id="1xUykO0D0YHAC69Du_Xp-20" style="edgeStyle=orthogonalEdgeStyle;rounded=0;orthogonalLoop=1;jettySize=auto;html=1;fontSize=12;entryX=0;entryY=0.5;entryDx=0;entryDy=0;labelBackgroundColor=none;strokeColor=#E07A5F;fontColor=default;" edge="1" parent="WIyWlLk6GJQsqaUBKTNV-1" source="1xUykO0D0YHAC69Du_Xp-4" target="1xUykO0D0YHAC69Du_Xp-5">
          <mxGeometry relative="1" as="geometry">
            <mxPoint x="115" y="480" as="targetPoint" />
            <Array as="points">
              <mxPoint x="115" y="450" />
            </Array>
          </mxGeometry>
        </mxCell>
        <mxCell id="1xUykO0D0YHAC69Du_Xp-4" value="&lt;font style=&quot;font-size: 16px;&quot;&gt;发送信号任务&lt;br&gt;&lt;/font&gt;（触碰开关、红外线发射）" style="rounded=0;whiteSpace=wrap;html=1;aspect=fixed;labelBackgroundColor=none;fillColor=#ffe6cc;strokeColor=#d79b00;" vertex="1" parent="WIyWlLk6GJQsqaUBKTNV-1">
          <mxGeometry x="40" y="233" width="150" height="50" as="geometry" />
        </mxCell>
        <mxCell id="1xUykO0D0YHAC69Du_Xp-21" style="edgeStyle=orthogonalEdgeStyle;rounded=0;orthogonalLoop=1;jettySize=auto;html=1;entryX=0;entryY=0.5;entryDx=0;entryDy=0;fontSize=12;labelBackgroundColor=none;strokeColor=#E07A5F;fontColor=default;" edge="1" parent="WIyWlLk6GJQsqaUBKTNV-1" source="1xUykO0D0YHAC69Du_Xp-5" target="1xUykO0D0YHAC69Du_Xp-7">
          <mxGeometry relative="1" as="geometry" />
        </mxCell>
        <mxCell id="1xUykO0D0YHAC69Du_Xp-26" value="" style="edgeStyle=orthogonalEdgeStyle;rounded=0;orthogonalLoop=1;jettySize=auto;html=1;fontSize=12;labelBackgroundColor=none;strokeColor=#E07A5F;fontColor=default;" edge="1" parent="WIyWlLk6GJQsqaUBKTNV-1" source="1xUykO0D0YHAC69Du_Xp-5" target="1xUykO0D0YHAC69Du_Xp-8">
          <mxGeometry relative="1" as="geometry" />
        </mxCell>
        <mxCell id="1xUykO0D0YHAC69Du_Xp-5" value="&lt;span style=&quot;font-size: 16px;&quot;&gt;是否收到信号&lt;br&gt;&lt;/span&gt;（红外线接收）" style="rhombus;whiteSpace=wrap;html=1;shadow=0;fontFamily=Helvetica;fontSize=12;align=center;strokeWidth=1;spacing=6;spacingTop=-4;aspect=fixed;labelBackgroundColor=none;fillColor=#ffe6cc;strokeColor=#d79b00;" vertex="1" parent="WIyWlLk6GJQsqaUBKTNV-1">
          <mxGeometry x="320" y="390" width="150" height="120" as="geometry" />
        </mxCell>
        <mxCell id="1xUykO0D0YHAC69Du_Xp-7" value="&lt;font style=&quot;font-size: 16px;&quot;&gt;飞船1停止运动&lt;/font&gt;" style="rounded=1;whiteSpace=wrap;html=1;fontSize=12;glass=0;strokeWidth=1;shadow=0;aspect=fixed;labelBackgroundColor=none;fillColor=#fff2cc;strokeColor=#d6b656;" vertex="1" parent="WIyWlLk6GJQsqaUBKTNV-1">
          <mxGeometry x="780" y="425" width="150" height="50" as="geometry" />
        </mxCell>
        <mxCell id="1xUykO0D0YHAC69Du_Xp-28" style="edgeStyle=orthogonalEdgeStyle;rounded=0;orthogonalLoop=1;jettySize=auto;html=1;fontSize=12;labelBackgroundColor=none;strokeColor=#E07A5F;fontColor=default;" edge="1" parent="WIyWlLk6GJQsqaUBKTNV-1" source="1xUykO0D0YHAC69Du_Xp-8" target="1xUykO0D0YHAC69Du_Xp-9">
          <mxGeometry relative="1" as="geometry" />
        </mxCell>
        <mxCell id="1xUykO0D0YHAC69Du_Xp-8" value="&lt;font style=&quot;font-size: 16px;&quot;&gt;测距任务&lt;br&gt;&lt;/font&gt;（距离传感器）" style="rounded=0;whiteSpace=wrap;html=1;aspect=fixed;labelBackgroundColor=none;fillColor=#fff2cc;strokeColor=#d6b656;" vertex="1" parent="WIyWlLk6GJQsqaUBKTNV-1">
          <mxGeometry x="320" y="620" width="150" height="50" as="geometry" />
        </mxCell>
        <mxCell id="1xUykO0D0YHAC69Du_Xp-29" style="edgeStyle=orthogonalEdgeStyle;rounded=0;orthogonalLoop=1;jettySize=auto;html=1;exitX=0;exitY=0.5;exitDx=0;exitDy=0;entryX=1;entryY=0.5;entryDx=0;entryDy=0;fontSize=12;labelBackgroundColor=none;strokeColor=#E07A5F;fontColor=default;" edge="1" parent="WIyWlLk6GJQsqaUBKTNV-1" source="1xUykO0D0YHAC69Du_Xp-9" target="1xUykO0D0YHAC69Du_Xp-10">
          <mxGeometry relative="1" as="geometry" />
        </mxCell>
        <mxCell id="1xUykO0D0YHAC69Du_Xp-33" style="edgeStyle=orthogonalEdgeStyle;rounded=0;orthogonalLoop=1;jettySize=auto;html=1;entryX=0.5;entryY=0;entryDx=0;entryDy=0;fontSize=13;labelBackgroundColor=none;strokeColor=#E07A5F;fontColor=default;" edge="1" parent="WIyWlLk6GJQsqaUBKTNV-1" source="1xUykO0D0YHAC69Du_Xp-9" target="1xUykO0D0YHAC69Du_Xp-11">
          <mxGeometry relative="1" as="geometry" />
        </mxCell>
        <mxCell id="1xUykO0D0YHAC69Du_Xp-9" value="&lt;span style=&quot;font-size: 16px;&quot;&gt;是否检测&lt;br&gt;到飞船1&lt;/span&gt;" style="rhombus;whiteSpace=wrap;html=1;shadow=0;fontFamily=Helvetica;fontSize=12;align=center;strokeWidth=1;spacing=6;spacingTop=-4;aspect=fixed;labelBackgroundColor=none;fillColor=#fff2cc;strokeColor=#d6b656;" vertex="1" parent="WIyWlLk6GJQsqaUBKTNV-1">
          <mxGeometry x="320" y="774" width="150" height="120" as="geometry" />
        </mxCell>
        <mxCell id="1xUykO0D0YHAC69Du_Xp-10" value="&lt;font style=&quot;font-size: 16px;&quot;&gt;飞船2停止运动&lt;/font&gt;" style="rounded=1;whiteSpace=wrap;html=1;fontSize=12;glass=0;strokeWidth=1;shadow=0;aspect=fixed;labelBackgroundColor=none;fillColor=#ffe6cc;strokeColor=#d79b00;" vertex="1" parent="WIyWlLk6GJQsqaUBKTNV-1">
          <mxGeometry x="40" y="809" width="150" height="50" as="geometry" />
        </mxCell>
        <mxCell id="1xUykO0D0YHAC69Du_Xp-35" value="" style="edgeStyle=orthogonalEdgeStyle;rounded=0;orthogonalLoop=1;jettySize=auto;html=1;fontSize=13;labelBackgroundColor=none;strokeColor=#E07A5F;fontColor=default;" edge="1" parent="WIyWlLk6GJQsqaUBKTNV-1" source="1xUykO0D0YHAC69Du_Xp-11" target="1xUykO0D0YHAC69Du_Xp-12">
          <mxGeometry relative="1" as="geometry" />
        </mxCell>
        <mxCell id="1xUykO0D0YHAC69Du_Xp-11" value="&lt;span style=&quot;font-size: 16px;&quot;&gt;飞船2到达指定对接点&lt;br&gt;&lt;/span&gt;（机械结构件）" style="rounded=0;whiteSpace=wrap;html=1;aspect=fixed;labelBackgroundColor=none;fillColor=#ffe6cc;strokeColor=#d79b00;" vertex="1" parent="WIyWlLk6GJQsqaUBKTNV-1">
          <mxGeometry x="305" y="998" width="180" height="60" as="geometry" />
        </mxCell>
        <mxCell id="1xUykO0D0YHAC69Du_Xp-36" value="" style="edgeStyle=orthogonalEdgeStyle;rounded=0;orthogonalLoop=1;jettySize=auto;html=1;fontSize=13;labelBackgroundColor=none;strokeColor=#E07A5F;fontColor=default;" edge="1" parent="WIyWlLk6GJQsqaUBKTNV-1" target="1xUykO0D0YHAC69Du_Xp-13">
          <mxGeometry relative="1" as="geometry">
            <mxPoint x="395" y="1209" as="sourcePoint" />
          </mxGeometry>
        </mxCell>
        <mxCell id="1xUykO0D0YHAC69Du_Xp-12" value="&lt;span style=&quot;font-size: 16px;&quot;&gt;飞船1到达指定对接点&lt;/span&gt;" style="rounded=0;whiteSpace=wrap;html=1;aspect=fixed;labelBackgroundColor=none;fillColor=#fff2cc;strokeColor=#d6b656;" vertex="1" parent="WIyWlLk6GJQsqaUBKTNV-1">
          <mxGeometry x="305" y="1152" width="180" height="60" as="geometry" />
        </mxCell>
        <mxCell id="1xUykO0D0YHAC69Du_Xp-13" value="&lt;font style=&quot;&quot;&gt;&lt;span style=&quot;font-size: 16px;&quot;&gt;对接成功&lt;/span&gt;&lt;br&gt;&lt;font style=&quot;font-size: 12px;&quot;&gt;（亮灯）&lt;/font&gt;&lt;br&gt;&lt;/font&gt;" style="rounded=1;whiteSpace=wrap;html=1;fontSize=12;glass=0;strokeWidth=1;shadow=0;aspect=fixed;labelBackgroundColor=none;fillColor=#F2CC8F;strokeColor=#E07A5F;fontColor=#393C56;" vertex="1" parent="WIyWlLk6GJQsqaUBKTNV-1">
          <mxGeometry x="320" y="1302" width="150" height="50" as="geometry" />
        </mxCell>
        <mxCell id="1xUykO0D0YHAC69Du_Xp-18" value="金属材质" style="text;html=1;strokeColor=none;fillColor=none;align=center;verticalAlign=middle;whiteSpace=wrap;rounded=0;fontSize=13;labelBackgroundColor=none;fontColor=#393C56;" vertex="1" parent="WIyWlLk6GJQsqaUBKTNV-1">
          <mxGeometry x="490" y="224" width="60" height="30" as="geometry" />
        </mxCell>
        <mxCell id="1xUykO0D0YHAC69Du_Xp-19" value="非金属材质" style="text;html=1;strokeColor=none;fillColor=none;align=center;verticalAlign=middle;whiteSpace=wrap;rounded=0;fontSize=13;labelBackgroundColor=none;fontColor=#393C56;" vertex="1" parent="WIyWlLk6GJQsqaUBKTNV-1">
          <mxGeometry x="220" y="224" width="70" height="30" as="geometry" />
        </mxCell>
        <mxCell id="1xUykO0D0YHAC69Du_Xp-24" value="" style="endArrow=none;html=1;rounded=0;fontSize=12;entryX=0.5;entryY=1;entryDx=0;entryDy=0;labelBackgroundColor=none;strokeColor=#E07A5F;fontColor=default;" edge="1" parent="WIyWlLk6GJQsqaUBKTNV-1" target="1xUykO0D0YHAC69Du_Xp-2">
          <mxGeometry width="50" height="50" relative="1" as="geometry">
            <mxPoint x="655" y="450" as="sourcePoint" />
            <mxPoint x="480" y="390" as="targetPoint" />
          </mxGeometry>
        </mxCell>
        <mxCell id="1xUykO0D0YHAC69Du_Xp-25" value="未收到信号" style="text;html=1;strokeColor=none;fillColor=none;align=center;verticalAlign=middle;whiteSpace=wrap;rounded=0;fontSize=13;labelBackgroundColor=none;fontColor=#393C56;" vertex="1" parent="WIyWlLk6GJQsqaUBKTNV-1">
          <mxGeometry x="530" y="416" width="80" height="30" as="geometry" />
        </mxCell>
        <mxCell id="1xUykO0D0YHAC69Du_Xp-27" value="收到信号" style="text;html=1;strokeColor=none;fillColor=none;align=center;verticalAlign=middle;whiteSpace=wrap;rounded=0;fontSize=13;labelBackgroundColor=none;fontColor=#393C56;" vertex="1" parent="WIyWlLk6GJQsqaUBKTNV-1">
          <mxGeometry x="398" y="540" width="80" height="30" as="geometry" />
        </mxCell>
        <mxCell id="1xUykO0D0YHAC69Du_Xp-30" value="未检测到飞船1" style="text;html=1;strokeColor=none;fillColor=none;align=center;verticalAlign=middle;whiteSpace=wrap;rounded=0;fontSize=13;labelBackgroundColor=none;fontColor=#393C56;" vertex="1" parent="WIyWlLk6GJQsqaUBKTNV-1">
          <mxGeometry x="218" y="800" width="90" height="30" as="geometry" />
        </mxCell>
        <mxCell id="1xUykO0D0YHAC69Du_Xp-34" value="检测到飞船1" style="text;html=1;strokeColor=none;fillColor=none;align=center;verticalAlign=middle;whiteSpace=wrap;rounded=0;fontSize=13;labelBackgroundColor=none;fontColor=#393C56;" vertex="1" parent="WIyWlLk6GJQsqaUBKTNV-1">
          <mxGeometry x="398" y="924" width="92" height="30" as="geometry" />
        </mxCell>
      </root>
    </mxGraphModel>
  </diagram>
</mxfile>
